<svg width="60" height="60" viewBox="0 0 60 60" fill="none" xmlns="http://www.w3.org/2000/svg">
<g clip-path="url(#clip0_1428_1148)">
<path d="M0.264995 36.6925C8.09 43.83 18.445 48.125 29.94 48.125C38.14 48.125 47.68 45.525 54.245 40.625C55.3225 39.8175 54.385 38.5875 53.2875 39.0925C45.9225 42.2375 37.9225 43.77 30.6375 43.77C19.8425 43.77 9.405 40.765 0.944995 35.805C0.204995 35.3625 -0.352505 36.13 0.264995 36.6925Z" fill="#FF9800"/>
<path d="M42.9525 12.9C42.9525 12.56 42.77 12.395 42.4525 12.395H40.6L40.515 12.3925C40.255 12.3925 40.015 12.4675 39.8175 12.5975C39.6775 12.7175 39.5375 12.9825 39.4175 13.385L35.965 26.8925L32.8125 13.385C32.735 13 32.5925 12.7175 32.435 12.5975C32.275 12.4575 32.015 12.395 31.635 12.395H30.045L29.9575 12.3925C29.7037 12.3913 29.4548 12.4624 29.24 12.5975C29.0825 12.7175 28.9625 12.9825 28.8625 13.385L25.75 26.7325L22.395 13.385C22.2775 13 22.1575 12.7175 21.995 12.5975C21.8575 12.4575 21.5975 12.395 21.22 12.395H19.2625C18.945 12.395 18.785 12.5775 18.785 12.9L18.7875 12.915C18.8175 13.2 18.88 13.475 18.965 13.71L23.6525 29.2975C23.7725 29.68 23.9125 29.9625 24.0725 30.0825C24.2325 30.225 24.4725 30.285 24.8325 30.285L26.5475 30.2825C26.905 30.2825 27.185 30.2225 27.3475 30.08C27.505 29.9375 27.6225 29.675 27.7225 29.2725L30.7975 16.29L33.8925 29.2925C33.97 29.6975 34.11 29.96 34.2675 30.1C34.43 30.2425 34.69 30.3025 35.0675 30.3025H36.7825L36.855 30.305C37.11 30.305 37.3475 30.23 37.5425 30.1C37.7025 29.98 37.8425 29.7175 37.9625 29.315L42.77 13.73L42.7625 13.75C42.8279 13.5799 42.8773 13.4042 42.91 13.225C42.93 13.1025 42.9525 13.0025 42.9525 12.9ZM54.205 25.505V25.56C54.2058 25.9329 54.1108 26.2998 53.9291 26.6255C53.7475 26.9511 53.4852 27.2247 53.1675 27.42C52.49 27.865 51.51 28.0875 50.255 28.0875C49.455 28.0875 48.6775 28.0075 47.88 27.845C47.1252 27.689 46.3894 27.4527 45.685 27.14C45.485 27.06 45.305 26.9775 45.185 26.9375C45.069 26.8981 44.9474 26.8779 44.825 26.8775C44.5275 26.8775 44.3675 27.08 44.3675 27.5025V28.53C44.37 28.735 44.4125 28.93 44.4875 29.095C44.5675 29.2775 44.785 29.48 45.105 29.6575C45.625 29.96 46.4025 30.2225 47.4 30.465C48.4056 30.7052 49.436 30.8261 50.47 30.825C51.4368 30.8309 52.3989 30.6884 53.3225 30.4025C54.18 30.14 54.9175 29.7775 55.5375 29.2725C56.155 28.7875 56.635 28.185 56.995 27.4975C57.3325 26.8125 57.5125 26.025 57.5125 25.1575C57.5125 24.11 57.2125 23.1625 56.595 22.335C55.9775 21.51 54.9375 20.8625 53.5025 20.3975L50.6675 19.4925C49.61 19.15 48.8725 18.765 48.475 18.38C48.2803 18.1964 48.1264 17.9741 48.023 17.7273C47.9197 17.4806 47.8692 17.2149 47.875 16.9475C47.875 16.1225 48.195 15.5375 48.8125 15.155C49.43 14.77 50.33 14.5925 51.4675 14.5925H51.6075C52.8794 14.5874 54.1377 14.8551 55.2975 15.3775L55.2875 15.3725C55.524 15.506 55.785 15.5901 56.055 15.62C56.355 15.62 56.515 15.3975 56.515 14.9725V14.035C56.5303 13.7998 56.4679 13.5662 56.3375 13.37L56.335 13.365C56.1756 13.1558 55.9714 12.985 55.7375 12.865C55.4733 12.7114 55.1923 12.5889 54.9 12.5C54.5248 12.3797 54.1454 12.2729 53.7625 12.18C53.3425 12.1 52.925 12.0175 52.4675 11.9575C52.0239 11.901 51.5771 11.8743 51.13 11.8775C50.2525 11.8775 49.415 11.98 48.615 12.22C47.815 12.46 47.14 12.8025 46.54 13.2675C45.9479 13.7088 45.4576 14.2724 45.1025 14.92C44.7337 15.6072 44.5477 16.3777 44.5625 17.1575C44.5675 18.265 44.9425 19.285 45.5625 20.0825C46.22 20.99 47.2975 21.675 48.755 22.135L51.6475 23.045C52.625 23.3675 53.305 23.7125 53.665 24.0925C54 24.4425 54.205 24.9225 54.205 25.45V25.505Z" fill="#212121"/>
<path d="M56.06 45.4225C59.5725 42.44 60.49 36.21 59.7725 35.3025C59.055 34.415 52.8875 33.65 49.1375 36.31C48.5575 36.735 48.6575 37.3 49.295 37.22C51.43 36.9575 56.14 36.395 56.98 37.48C57.8175 38.55 56.0425 43.0475 55.2425 45.0425C55.0025 45.645 55.5225 45.8875 56.06 45.4225Z" fill="#FF9800"/>
<path d="M11.3 19.86C10.5994 19.7583 9.89283 19.7041 9.18498 19.6975C7.12998 19.6975 5.51498 20.2225 4.29748 21.27C3.07998 22.315 2.48248 23.71 2.48248 25.4225C2.48248 27.0375 2.97998 28.3275 3.95748 29.295C4.93498 30.2625 6.27248 30.745 7.94748 30.745C10.3025 30.745 12.26 29.8175 13.815 27.965L13.855 28.0575C14.045 28.4575 14.2525 28.845 14.435 29.1525L14.45 29.1775C14.6575 29.5075 14.8925 29.82 15.1525 30.1C15.35 30.2825 15.55 30.385 15.75 30.385C15.9369 30.3774 16.1197 30.3138 16.27 30.2025L17.5275 29.3575C17.7875 29.155 17.9075 28.9525 17.9075 28.7525C17.9053 28.5882 17.8568 28.4279 17.7675 28.29C17.5188 27.8213 17.3049 27.335 17.1275 26.835C16.9659 26.2516 16.8918 25.6476 16.9075 25.0425L16.8675 25.045V18.51C16.8675 16.2925 16.31 14.6375 15.2125 13.5525C14.095 12.4625 12.36 11.9175 9.98498 11.9175H9.86998C8.80498 11.9175 7.76998 12.0575 6.86998 12.3C5.9999 12.5033 5.15664 12.8078 4.35748 13.2075L4.34748 13.21C4.13418 13.3045 3.94585 13.4474 3.79748 13.6275C3.69748 13.77 3.65748 14.0125 3.65748 14.335V15.3225C3.65748 15.745 3.79748 15.9475 4.07748 15.9475C4.18467 15.9433 4.29322 15.9239 4.39498 15.89L4.43498 15.88C4.66027 15.8094 4.88074 15.7242 5.09498 15.625C5.79248 15.3425 6.51248 15.12 7.24998 14.9375C7.98748 14.755 8.70748 14.6775 9.40748 14.6775C10.9425 14.6775 12.02 14.9775 12.6575 15.605C13.2775 16.23 13.595 17.2975 13.595 18.83V20.3025C12.8368 20.1218 12.071 19.9742 11.3 19.86ZM13.6375 22.5625V23.4075C13.6375 24.0925 13.555 24.6775 13.4375 25.16C13.3133 25.6374 13.0806 26.0797 12.7575 26.4525C12.2495 27.0409 11.5961 27.4857 10.8625 27.7425C10.2019 27.9749 9.5077 28.0974 8.80748 28.105C7.88748 28.105 7.18998 27.8625 6.71248 27.3575C6.21248 26.875 5.97498 26.1675 5.97498 25.22C5.97498 24.2125 6.29248 23.4475 6.94998 22.905C7.60998 22.36 8.58748 22.0975 9.92498 22.0975C10.5875 22.0975 11.2375 22.1425 11.8 22.2175L11.885 22.2275C12.52 22.3125 13.1425 22.4325 13.6375 22.5625Z" fill="#212121"/>
</g>
<defs>
<clipPath id="clip0_1428_1148">
<rect width="60" height="60" fill="white"/>
</clipPath>
</defs>
</svg>
