<svg width="60" height="37" viewBox="0 0 60 37" fill="none" xmlns="http://www.w3.org/2000/svg">
<g clip-path="url(#clip0_1297_596)">
<path d="M16.9086 13.2548C16.8931 13.8544 16.9671 14.453 17.1281 15.0308C17.3054 15.525 17.5189 16.0054 17.7669 16.4681C17.8556 16.6049 17.9041 16.764 17.9066 16.9271C17.9066 17.1266 17.7868 17.3264 17.5274 17.5258L16.2703 18.3639C16.1186 18.4732 15.9383 18.5356 15.7515 18.5435C15.5242 18.5278 15.3108 18.4283 15.1529 18.2641C14.8839 17.9752 14.6432 17.6611 14.4342 17.3263C14.2347 16.987 14.035 16.6076 13.8156 16.1488C12.2591 17.9844 10.3035 18.9022 7.94863 18.9022C6.27182 18.9022 4.93539 18.4231 3.9576 17.465C2.9798 16.5068 2.48087 15.2304 2.48087 13.634C2.48087 11.9378 3.0795 10.5608 4.29684 9.52316C5.51418 8.48547 7.13042 7.96658 9.18582 7.96658C9.8937 7.97236 10.6004 8.02571 11.3011 8.12627C12.0395 8.22608 12.7978 8.38566 13.5959 8.56532V7.10855C13.5959 5.59144 13.2766 4.53436 12.6581 3.91566C12.0193 3.29706 10.9419 2.99775 9.40529 2.99775C8.6791 2.99771 7.95552 3.0848 7.25008 3.25714C6.51649 3.43191 5.79627 3.65864 5.09486 3.93562C4.86793 4.03715 4.63462 4.1238 4.39642 4.19501C4.29309 4.22908 4.18568 4.24922 4.07703 4.2549C3.79767 4.2549 3.65794 4.05539 3.65794 3.6363V2.65851C3.65794 2.33911 3.69786 2.09957 3.79767 1.96006C3.94826 1.77817 4.1398 1.63455 4.35661 1.54097C5.157 1.14495 6.00084 0.843602 6.87103 0.643026C7.88786 0.382114 8.93434 0.254655 9.98407 0.263862C12.3592 0.263862 14.0949 0.802609 15.2124 1.88022C16.31 2.95782 16.8687 4.59414 16.8687 6.78927V13.2548H16.9086ZM8.80677 16.288C9.50683 16.2803 10.201 16.159 10.8622 15.9288C11.5946 15.6754 12.2481 15.235 12.7579 14.6512C13.0796 14.2834 13.3118 13.8461 13.4364 13.3737C13.5735 12.8053 13.6405 12.2222 13.6359 11.6375V10.8003C13.0308 10.653 12.418 10.5397 11.8003 10.461C11.178 10.3822 10.5514 10.3424 9.92419 10.3418C8.58719 10.3418 7.60939 10.6012 6.95087 11.1403C6.29236 11.6794 5.97308 12.4374 5.97308 13.4351C5.97308 14.373 6.21262 15.0715 6.71144 15.5504C7.19053 16.0494 7.88886 16.2888 8.80677 16.2888V16.288ZM24.8309 18.4432C24.4717 18.4432 24.2323 18.3833 24.0726 18.2437C23.9129 18.1239 23.7733 17.8445 23.6535 17.4654L18.9638 2.03991C18.8729 1.7817 18.8126 1.5137 18.7842 1.24143C18.7842 0.922038 18.9439 0.742494 19.2633 0.742494H21.2189C21.5981 0.742494 21.8577 0.80238 21.9972 0.942C22.1569 1.06177 22.2766 1.34124 22.3965 1.72029L25.7489 14.9307L28.8619 1.72063C28.9617 1.32139 29.0813 1.06211 29.241 0.942343C29.4007 0.82257 29.6801 0.742836 30.0395 0.742836H31.6365C32.0156 0.742836 32.2753 0.802723 32.435 0.942343C32.5946 1.06211 32.7343 1.34158 32.8141 1.72063L35.9671 15.0907L39.4182 1.72063C39.538 1.32139 39.6776 1.06211 39.8175 0.942343C39.9772 0.82257 40.2366 0.742836 40.5958 0.742836H42.4517C42.7711 0.742836 42.9506 0.902533 42.9506 1.24177C42.9459 1.34914 42.9326 1.45595 42.9107 1.56116C42.8794 1.73139 42.8326 1.8984 42.7709 2.0601L37.9617 17.4856C37.842 17.8847 37.7023 18.1441 37.5426 18.2639C37.317 18.4083 37.0517 18.4781 36.7843 18.4634H35.068C34.6888 18.4634 34.4292 18.4035 34.2695 18.2639C34.1098 18.1243 33.9702 17.8647 33.8904 17.4654L30.7975 4.59414L27.7243 17.4455C27.6244 17.8447 27.5048 18.104 27.3451 18.2439C27.1854 18.3839 26.906 18.4434 26.5466 18.4434L24.8309 18.4432ZM50.4735 18.982C49.4386 18.9831 48.4072 18.8625 47.4004 18.6228C46.4027 18.3832 45.6244 18.1238 45.1056 17.8243C44.7862 17.6447 44.5668 17.4451 44.487 17.2653C44.4093 17.0892 44.3685 16.8989 44.3672 16.7064V15.6894C44.3672 15.2703 44.5269 15.0708 44.8262 15.0708C44.9484 15.0712 45.0697 15.0914 45.1854 15.1307C45.3052 15.1706 45.4847 15.2504 45.6844 15.3302C46.3892 15.6402 47.1251 15.8743 47.8795 16.0286C48.6611 16.1873 49.4566 16.2675 50.2542 16.2682C51.5113 16.2682 52.4892 16.0487 53.1677 15.6096C53.4928 15.4135 53.7601 15.1348 53.9424 14.8018C54.1247 14.4688 54.2156 14.0934 54.2058 13.7139C54.2128 13.457 54.1688 13.2013 54.0763 12.9615C53.9838 12.7217 53.8447 12.5027 53.667 12.317C53.3078 11.9379 52.629 11.5984 51.6515 11.279L48.7574 10.3812C47.3006 9.92228 46.223 9.2438 45.5646 8.34563C44.9221 7.51745 44.5714 6.50019 44.5668 5.45205C44.5506 4.67938 44.7363 3.91586 45.1056 3.23695C45.4621 2.59495 45.9522 2.03694 46.5428 1.60063C47.1648 1.12977 47.8684 0.777856 48.6182 0.562608C49.4351 0.327478 50.2821 0.213375 51.1321 0.223938C51.579 0.220698 52.0257 0.247374 52.4691 0.303786C52.9281 0.363672 53.3474 0.44352 53.7661 0.523254C54.1654 0.623064 54.5444 0.72276 54.9036 0.842647C55.1948 0.932721 55.4757 1.05311 55.7418 1.20185C55.9768 1.32034 56.1815 1.491 56.3404 1.70079C56.4702 1.89497 56.5332 2.12612 56.52 2.3593V3.29718C56.52 3.71626 56.3603 3.93596 56.061 3.93596C55.9013 3.93596 55.6419 3.85611 55.3026 3.69642C54.1651 3.17756 52.888 2.91813 51.4712 2.91813C50.3337 2.91813 49.4357 3.09767 48.8172 3.47706C48.1986 3.85645 47.8793 4.43524 47.8793 5.25311C47.8738 5.51809 47.9243 5.78125 48.0275 6.02539C48.1306 6.26953 48.2841 6.48917 48.4779 6.66996C48.8772 7.04912 49.6154 7.42829 50.673 7.76753L53.5067 8.66502C54.944 9.12403 55.9812 9.76259 56.5998 10.5807C57.209 11.3834 57.5321 12.3669 57.5177 13.3745C57.528 14.176 57.3504 14.9688 56.999 15.6893C56.6448 16.3723 56.148 16.9712 55.5422 17.4453C54.8834 17.9582 54.131 18.3379 53.3271 18.5632C52.4028 18.8475 51.4404 18.9888 50.4734 18.9823L50.4735 18.982Z" fill="#252F3E"/>
<path d="M54.2451 28.68C47.6798 33.5291 38.1411 36.1033 29.9395 36.1033C18.4451 36.1038 8.08827 31.8533 0.266017 24.7891C-0.352578 24.2302 0.206131 23.4721 0.944497 23.9108C9.40554 28.8198 19.8423 31.7929 30.6381 31.7929C37.9218 31.7929 45.9238 30.2758 53.2874 27.1632C54.385 26.6643 55.3228 27.8818 54.2456 28.6803L54.2451 28.68Z" fill="#FF9900"/>
<path d="M56.979 25.5674C56.1408 24.4898 51.4314 25.0486 49.2961 25.308C48.6573 25.3878 48.5578 24.8289 49.1364 24.41C52.888 21.7759 59.0542 22.5342 59.7726 23.4123C60.4913 24.3102 59.5731 30.4764 56.061 33.4299C55.5222 33.8889 55.0033 33.6494 55.2428 33.0507C56.0411 31.0751 57.8172 26.625 56.979 25.5674Z" fill="#FF9900"/>
</g>
<defs>
<clipPath id="clip0_1297_596">
<rect width="60" height="35.8797" fill="white" transform="translate(0 0.223999)"/>
</clipPath>
</defs>
</svg>
