<svg width="60" height="59" viewBox="0 0 60 59" fill="none" xmlns="http://www.w3.org/2000/svg">
<g clip-path="url(#clip0_1297_597)">
<path d="M54.5454 58.0698H44.8296L45.5114 49.8878H40.7386L40.0568 58.0698H19.9432L19.2612 49.8878H14.4888L15.1709 58.0698H5.45437L0 22.615L13.6364 0.796997H46.3636L60 22.615L54.5454 58.0698ZM43.6364 11.706H34.8701L35.4546 15.797H24.5454L25.1299 11.706H16.3636L10.909 22.6152L13.6364 44.4332H46.3636L49.091 22.6152L43.6364 11.706ZM38.8636 37.1924C38.1105 37.1924 37.5 34.9213 37.5 32.1198C37.5 29.3181 38.1105 27.047 38.8636 27.047C39.6166 27.047 40.2272 29.3181 40.2272 32.1198C40.2272 34.9213 39.6166 37.1924 38.8636 37.1924ZM21.6478 37.6152C20.8948 37.6152 20.284 35.3441 20.284 32.5424C20.284 29.7409 20.8948 27.4698 21.6478 27.4698C22.4009 27.4698 23.0114 29.7409 23.0114 32.5424C23.0114 35.3441 22.4009 37.6152 21.6478 37.6152Z" fill="#444444"/>
</g>
<defs>
<clipPath id="clip0_1297_597">
<rect width="60" height="57.432" fill="white" transform="translate(0 0.791992)"/>
</clipPath>
</defs>
</svg>
