<svg width="60" height="61" viewBox="0 0 60 61" fill="none" xmlns="http://www.w3.org/2000/svg">
<path d="M59.3766 46.9357C57.2391 47.4795 55.9172 46.9592 54.7313 45.1779C52.0687 41.1889 49.1297 37.3826 46.2938 33.5061C45.9281 33.0045 45.5484 32.5123 45.075 31.8889C41.7188 36.417 38.3672 40.7295 35.2219 45.2154C34.0969 46.8186 32.9156 47.517 30.8156 46.9498L43.4344 30.0139L31.6875 14.7186C33.7078 14.3248 35.1047 14.5264 36.3422 16.3357C39.075 20.3295 42.0891 24.1311 45.0937 28.1529C48.1172 24.1451 51.0938 20.3389 53.9062 16.3826C55.0359 14.7795 56.25 14.1701 58.2797 14.7607C56.7422 16.7998 55.2375 18.8061 53.7234 20.7982C51.6797 23.4842 49.6734 26.2029 47.5547 28.8326C46.8 29.7701 46.9219 30.3795 47.5969 31.2654C51.5156 36.417 55.3875 41.6201 59.3766 46.9357ZM0.623438 29.7326C0.960938 28.0404 1.18594 26.3154 1.65469 24.6561C4.46719 14.6107 15.9984 10.4342 23.9203 16.6592C28.5609 20.3107 29.7141 25.4576 29.4844 31.2607H3.32812C2.93438 41.6717 10.4297 47.9576 19.9828 44.7514C23.3344 43.6264 25.3078 41.0014 26.2969 37.7201C26.7984 36.0748 27.6281 35.817 29.175 36.2857C28.3828 40.392 26.5875 43.8232 22.8375 45.9701C17.2125 49.1857 9.18281 48.1451 4.95937 43.6779C2.46562 41.0529 1.40625 37.7857 0.9375 34.2561C0.867188 33.6936 0.721875 33.1404 0.609375 32.5826C0.61875 31.6326 0.623438 30.6826 0.623438 29.7326ZM3.375 29.0342H27.0141C26.8594 21.5061 22.1719 16.1576 15.7641 16.1107C8.73281 16.0545 3.67969 21.2764 3.375 29.0342Z" fill="black"/>
</svg>
