<svg width="60" height="61" viewBox="0 0 60 61" fill="none" xmlns="http://www.w3.org/2000/svg">
<g clip-path="url(#clip0_1297_639)">
<path d="M20 60.1038C25.52 60.1038 30 55.6238 30 50.1038V40.1038H20C14.48 40.1038 10 44.5838 10 50.1038C10 55.6238 14.48 60.1038 20 60.1038Z" fill="#0ACF83"/>
<path d="M10 30.1038C10 24.5838 14.48 20.1038 20 20.1038H30V40.1038H20C14.48 40.1038 10 35.6238 10 30.1038Z" fill="#A259FF"/>
<path d="M10 10.1038C10 4.58376 14.48 0.10376 20 0.10376H30V20.1038H20C14.48 20.1038 10 15.6238 10 10.1038Z" fill="#F24E1E"/>
<path d="M30 0.10376H40C45.52 0.10376 50 4.58376 50 10.1038C50 15.6238 45.52 20.1038 40 20.1038H30V0.10376Z" fill="#FF7262"/>
<path d="M50 30.1038C50 35.6238 45.52 40.1038 40 40.1038C34.48 40.1038 30 35.6238 30 30.1038C30 24.5838 34.48 20.1038 40 20.1038C45.52 20.1038 50 24.5838 50 30.1038Z" fill="#1ABCFE"/>
</g>
<defs>
<clipPath id="clip0_1297_639">
<rect width="60" height="60" fill="white" transform="translate(0 0.10376)"/>
</clipPath>
</defs>
</svg>
