<svg width="60" height="61" viewBox="0 0 60 61" fill="none" xmlns="http://www.w3.org/2000/svg">
<g clip-path="url(#clip0_1297_606)">
<path d="M8.36249 54.7945L3.54749 0.791992H56.4525L51.6325 54.7845L29.9675 60.792L8.36249 54.7945Z" fill="#E44D26"/>
<path d="M30 56.202L47.5075 51.3495L51.625 5.20697H30V56.202Z" fill="#F16529"/>
<path d="M30 25.237H21.235L20.63 18.4545H30V11.832H13.3925L13.55 13.607L15.1775 31.8595H30V25.237ZM30 42.437L29.97 42.4445L22.595 40.452L22.1225 35.1695H15.475L16.4025 45.5695L29.97 49.3345L30 49.327V42.437Z" fill="#EBEBEB"/>
<path d="M29.9775 25.237V31.8595H38.1325L37.3625 40.4495L29.975 42.442V49.332L43.5525 45.5695L43.6525 44.4495L45.21 27.012L45.3725 25.2345H43.5875L29.9775 25.237ZM29.9775 11.832V18.4545H45.975L46.1075 16.9645L46.41 13.607L46.5675 11.8295L29.9775 11.832Z" fill="white"/>
</g>
<defs>
<clipPath id="clip0_1297_606">
<rect width="60" height="60" fill="white" transform="translate(0 0.791992)"/>
</clipPath>
</defs>
</svg>
