<svg width="60" height="61" viewBox="0 0 60 61" fill="none" xmlns="http://www.w3.org/2000/svg">
<g clip-path="url(#clip0_1297_605)">
<path d="M30 16.5465C26.3738 16.5492 22.8967 17.9907 20.3324 20.5546C17.768 23.1185 16.3258 26.5953 16.3225 30.2215C16.3258 33.8473 17.7676 37.3237 20.3315 39.8875C22.8953 42.4514 26.3717 43.8932 29.9975 43.8965C33.6233 43.8932 37.0997 42.4514 39.6635 39.8875C42.2274 37.3237 43.6692 33.8473 43.6725 30.2215C43.6666 26.5969 42.2242 23.1225 39.6615 20.5593C37.0988 17.9961 33.6246 16.5531 30 16.5465Z" fill="#4E8FF6"/>
<path d="M49.625 17.7639C53.0685 17.7639 55.86 14.9724 55.86 11.5289C55.86 8.08545 53.0685 5.29395 49.625 5.29395C46.1815 5.29395 43.39 8.08545 43.39 11.5289C43.39 14.9724 46.1815 17.7639 49.625 17.7639Z" fill="#4E8FF6"/>
<path d="M30 60.2242C46.5475 60.2242 60 46.7717 60 30.2242C60 25.8992 59.0975 21.7167 57.305 17.7917L57.3025 17.7892L57.045 17.2142L56.6225 17.6842C55.6025 18.8442 54.3025 19.7342 52.86 20.2742L52.4625 20.4267L52.6275 20.8142C53.8755 23.7807 54.5132 26.9683 54.5025 30.1867V30.2117C54.5025 43.7242 43.51 54.7267 29.9875 54.7267C16.465 54.7267 5.4825 43.7342 5.4825 30.2217C5.4825 16.7092 16.4875 5.70666 29.9975 5.70666C33.665 5.70666 37.205 6.50416 40.4975 8.07416L40.885 8.26166L41.05 7.87416C41.685 6.41916 42.625 5.19916 43.7975 4.25666L43.815 4.24166L44.3075 3.84416L43.745 3.55166C39.5238 1.35029 34.8307 0.208324 30.07 0.224162H30C13.4525 0.224162 0 13.6767 0 30.2242C0 46.7717 13.4525 60.2242 30 60.2242Z" fill="#4E8FF6"/>
</g>
<defs>
<clipPath id="clip0_1297_605">
<rect width="60" height="60" fill="white" transform="translate(0 0.223999)"/>
</clipPath>
</defs>
</svg>
