<svg width="60" height="61" viewBox="0 0 60 61" fill="none" xmlns="http://www.w3.org/2000/svg">
<g clip-path="url(#clip0_1297_611)">
<path d="M0.660004 0.763794H59.34V59.4443H0.660004V0.763794Z" fill="#F0DB4F"/>
<path d="M54.5377 45.4488C54.1078 42.7718 52.3622 40.5232 47.1914 38.4264C45.3952 37.601 43.3927 37.0099 42.7959 35.6486C42.5841 34.8565 42.5559 34.4102 42.69 33.9307C43.0749 32.3744 44.9325 31.8893 46.4049 32.3355C47.3531 32.6533 48.2508 33.3841 48.7922 34.5499C51.3244 32.9102 51.3192 32.921 53.0874 31.7941C52.44 30.7905 52.0945 30.3274 51.6708 29.898C50.1478 28.1969 48.0727 27.3208 44.7539 27.3879L43.0252 27.6114C41.3686 28.03 39.7899 28.8996 38.8641 30.0654C36.0863 33.2172 36.8785 38.7335 40.2586 41.0036C43.5886 43.503 48.4805 44.0716 49.1053 46.4088C49.7133 49.27 47.0025 50.1963 44.3081 49.8672C42.3225 49.4543 41.2181 48.445 40.0242 46.6099C37.8267 47.8816 37.8267 47.8816 35.5674 49.181C36.1031 50.3524 36.6661 50.8825 37.5642 51.8974C41.8149 56.2089 52.4517 55.9971 54.3595 49.4711C54.4369 49.2471 54.9506 47.7527 54.5377 45.4488ZM32.5603 27.7333H27.0717L27.0492 41.9233C27.0492 44.9411 27.2053 47.7077 26.7145 48.5557C25.9116 50.2235 23.8308 50.0168 22.8825 49.6933C21.9174 49.219 21.4266 48.5444 20.858 47.591C20.7019 47.3172 20.5847 47.1054 20.5453 47.0889L16.0828 49.8218C16.8249 51.3447 17.918 52.6666 19.3181 53.5254C21.4097 54.7807 24.2208 55.1655 27.1608 54.4905C29.0742 53.9332 30.7252 52.7786 31.5895 51.0213C32.8392 48.7174 32.5711 45.9288 32.5599 42.8444C32.588 37.8124 32.5603 32.7813 32.5603 27.7333Z" fill="#323330"/>
</g>
<defs>
<clipPath id="clip0_1297_611">
<rect width="60" height="60" fill="white" transform="translate(0 0.10376)"/>
</clipPath>
</defs>
</svg>
