<svg width="60" height="61" viewBox="0 0 60 61" fill="none" xmlns="http://www.w3.org/2000/svg">
<path fill-rule="evenodd" clip-rule="evenodd" d="M41.2678 20.8601C42.0202 23.0365 42.562 25.2584 42.7402 27.5614C42.9614 30.4184 42.8602 33.2553 42.2578 36.0654C42.2414 36.1428 42.2067 36.2154 42.1809 36.2904C41.992 36.2909 41.7994 36.2674 41.6147 36.296C40.0542 36.5412 38.4951 36.7953 36.9361 37.0479C35.3245 37.309 33.7106 37.5598 32.1019 37.8387C31.5319 37.9371 30.8264 37.8195 30.5962 38.6079C30.5897 38.6295 30.5241 38.6332 30.4861 38.6454L30.5639 33.934C30.5372 30.1446 30.5109 26.3553 30.4847 22.5659L31.2356 22.437C32.4637 22.2359 33.6919 22.032 34.9209 21.8365C36.3877 21.6035 37.8558 21.3771 39.3234 21.1498C39.9708 21.049 40.6191 20.9567 41.2678 20.8601Z" fill="#439934"/>
<path fill-rule="evenodd" clip-rule="evenodd" d="M28.9355 52.3798C28.1433 51.6987 27.3235 51.0476 26.5641 50.3314C22.478 46.4773 19.4892 41.9412 18.0174 36.4723C17.6119 34.9672 17.3414 33.4376 17.2547 31.8823C17.1938 30.7939 17.1056 29.6956 17.1825 28.6128C17.3874 25.7328 17.8036 22.8804 18.6483 20.1064L18.6947 20.0417C18.7767 20.1509 18.8949 20.2475 18.9366 20.3707C19.7611 22.7989 20.5795 25.2289 21.3938 27.6603C23.9522 35.3009 26.5074 42.9434 29.07 50.5822C29.1202 50.7312 29.25 50.8536 29.3433 50.9881L28.9355 52.3798Z" fill="#45A538"/>
<path fill-rule="evenodd" clip-rule="evenodd" d="M41.2678 20.8601C40.6191 20.9567 39.9703 21.049 39.323 21.1489C37.8553 21.3762 36.3872 21.6026 34.9205 21.8356C33.6914 22.0311 32.4633 22.235 31.2352 22.4361L30.4842 22.565L30.4786 22.0751C30.4538 21.6725 30.4111 21.2703 30.4064 20.8676C30.3741 18.2998 30.3539 15.732 30.322 13.1642C30.3023 11.5568 30.2728 9.94997 30.24 8.34309C30.2198 7.34465 30.1983 6.34575 30.1533 5.34872C30.1289 4.81293 30.0427 4.27997 30.0075 3.74418C29.9878 3.43622 30.015 3.1259 30.0211 2.81653C30.4041 3.55856 30.7786 4.30622 31.1723 5.04262C31.7944 6.207 32.7853 7.06481 33.6773 8.0009C37.2038 11.7003 39.7073 16.0015 41.2678 20.8601Z" fill="#46A037"/>
<path fill-rule="evenodd" clip-rule="evenodd" d="M30.4856 38.6449C30.5236 38.6327 30.5897 38.629 30.5958 38.6074C30.8259 37.819 31.5314 37.9367 32.1014 37.8382C33.7101 37.5598 35.324 37.3085 36.9356 37.0474C38.4947 36.7948 40.0537 36.5407 41.6142 36.2956C41.7989 36.2665 41.9916 36.2904 42.1805 36.2899C41.8889 37.3306 41.6592 38.3937 41.2894 39.4057C40.8694 40.5537 40.3612 41.674 39.8217 42.7723C39.0155 44.4143 38.0109 45.9457 36.8437 47.3487C35.9442 48.4306 34.9416 49.4304 33.9366 50.4181C33.3811 50.9642 32.7262 51.409 32.1169 51.8998L31.9589 51.792L31.3898 51.3054L30.8011 50.0149C30.3956 48.5042 30.1828 46.9662 30.1476 45.4034L30.1584 45.1404L30.2386 44.0032C30.2653 43.6151 30.3009 43.2274 30.3173 42.8384C30.3778 41.4406 30.4303 40.0427 30.4856 38.6449Z" fill="#409433"/>
<path fill-rule="evenodd" clip-rule="evenodd" d="M30.4856 38.6449C30.4303 40.0428 30.3778 41.4406 30.3183 42.8388C30.3019 43.2279 30.2662 43.6156 30.2395 44.0037L29.8809 44.1392C29.0845 41.7945 28.2876 39.4746 27.5081 37.1487C26.219 33.3007 24.9455 29.4467 23.6583 25.5978C22.619 22.4909 21.5714 19.3873 20.5176 16.2851C20.4684 16.1398 20.3269 16.0263 20.2284 15.8979L22.5234 11.6782C22.6022 11.8151 22.7062 11.9431 22.7559 12.0903C23.8176 15.2323 24.8775 18.3748 25.9284 21.5206C27.2953 25.6128 28.6537 29.7082 30.0197 33.8009C30.074 33.9645 30.164 34.1154 30.2498 34.2987L30.5639 33.9331C30.5376 35.5038 30.5114 37.0742 30.4856 38.6449Z" fill="#4FAA41"/>
<path fill-rule="evenodd" clip-rule="evenodd" d="M20.2289 15.8984C20.3273 16.0268 20.4684 16.1403 20.5181 16.2856C21.5719 19.3878 22.6195 22.4913 23.6588 25.5982C24.9459 29.4471 26.2195 33.3012 27.5086 37.1492C28.2877 39.4746 29.0845 41.7949 29.8814 44.1396L30.24 44.0042L30.1598 45.1413L30.0872 45.4034C29.9625 46.6484 29.8575 47.8962 29.7056 49.1384C29.6292 49.7609 29.467 50.3721 29.3438 50.9885C29.2509 50.854 29.1206 50.7317 29.0705 50.5826C26.5078 42.9434 23.9527 35.3013 21.3942 27.6607C20.58 25.2293 19.7616 22.7993 18.937 20.3712C18.8953 20.2479 18.7777 20.1513 18.6952 20.0421C19.2061 18.6607 19.7175 17.2793 20.2289 15.8984Z" fill="#4AA73C"/>
<path fill-rule="evenodd" clip-rule="evenodd" d="M30.5634 33.9336L30.2494 34.2992C30.1636 34.1159 30.0736 33.9645 30.0192 33.8014C28.6538 29.7087 27.2949 25.6133 25.928 21.5211C24.877 18.3753 23.8172 15.2328 22.7555 12.0908C22.7063 11.9436 22.6022 11.8151 22.523 11.6787L25.3613 7.94513C25.4508 8.06466 25.5783 8.17107 25.6247 8.3056C26.4127 10.6123 27.1936 12.9218 27.9699 15.2328C28.695 17.3909 29.4094 19.5523 30.143 21.7076C30.1922 21.852 30.3633 21.9542 30.4777 22.0761L30.4833 22.5659C30.5105 26.3543 30.5372 30.1442 30.5634 33.9336Z" fill="#57AE47"/>
<path fill-rule="evenodd" clip-rule="evenodd" d="M30.4786 22.0751C30.3642 21.9532 30.1931 21.851 30.1439 21.7067C29.4103 19.5514 28.6959 17.39 27.9708 15.2318C27.1945 12.9209 26.4136 10.6118 25.6256 8.30464C25.5792 8.17011 25.4517 8.0637 25.3622 7.94417C26.2852 7.04042 27.1795 6.10433 28.1395 5.2423C28.9931 4.47636 29.6794 3.65511 29.7108 2.44479C29.7122 2.39464 29.7384 2.34448 29.7787 2.20386L30.022 2.81604C30.0159 3.12589 29.9883 3.43573 30.0084 3.7437C30.0436 4.27948 30.1298 4.81245 30.1542 5.34823C30.1992 6.34526 30.2208 7.34417 30.2409 8.34261C30.2733 9.94948 30.3028 11.5564 30.323 13.1637C30.3544 15.7315 30.375 18.2993 30.4073 20.8671C30.4111 21.2707 30.4533 21.6725 30.4786 22.0751Z" fill="#60B24F"/>
<path fill-rule="evenodd" clip-rule="evenodd" d="M29.3428 50.9881C29.4661 50.3717 29.6283 49.76 29.7047 49.1379C29.857 47.8962 29.9616 46.6479 30.0862 45.4029L30.1172 45.3983L30.1481 45.4034C30.1833 46.9662 30.3961 48.5042 30.8016 50.015C30.7191 50.1237 30.6023 50.2208 30.5587 50.3436C30.218 51.3045 29.8969 52.2729 29.5542 53.2339C29.5073 53.3651 29.377 53.4673 29.2852 53.5826L28.935 52.3798L29.3428 50.9881Z" fill="#A9AA88"/>
<path fill-rule="evenodd" clip-rule="evenodd" d="M29.2856 53.5831C29.3775 53.4678 29.5083 53.3656 29.5547 53.2343C29.8973 52.2734 30.2189 51.3054 30.5592 50.344C30.6028 50.2212 30.719 50.1242 30.802 50.0154L31.3903 51.3064C31.2741 51.4714 31.1137 51.62 31.0491 51.8037L29.9222 55.1126C29.8758 55.2453 29.7173 55.339 29.6114 55.4511L29.2856 53.5831Z" fill="#B6B598"/>
<path fill-rule="evenodd" clip-rule="evenodd" d="M29.6114 55.4506C29.7178 55.339 29.8758 55.2448 29.9222 55.1122L31.0491 51.8033C31.1133 51.62 31.2741 51.4709 31.3903 51.3059L31.9599 51.792C31.6847 52.0639 31.5319 52.3779 31.6238 52.775L31.4508 53.3412C31.372 53.4383 31.2581 53.5226 31.2192 53.6337C30.8259 54.7601 30.4505 55.8926 30.0544 57.019C30.0042 57.162 29.865 57.274 29.7666 57.3997C29.7155 56.7495 29.6635 56.1008 29.6114 55.4506Z" fill="#C2C1A7"/>
<path fill-rule="evenodd" clip-rule="evenodd" d="M29.767 57.3996C29.865 57.2735 30.0042 57.1615 30.0548 57.019C30.4509 55.8931 30.8264 54.7606 31.2197 53.6337C31.2586 53.5231 31.372 53.4382 31.4512 53.3412L31.2126 55.9404C31.1489 56.014 31.0566 56.0782 31.0261 56.164C30.7566 56.9206 30.5025 57.6827 30.232 58.4393C30.1762 58.5954 30.0694 58.7332 29.9859 58.879C29.9119 58.782 29.7792 58.6882 29.7731 58.587C29.7492 58.1927 29.7656 57.7957 29.767 57.3996Z" fill="#CECDB7"/>
<path fill-rule="evenodd" clip-rule="evenodd" d="M29.9855 58.879C30.0689 58.7328 30.1758 58.595 30.2316 58.4393C30.5025 57.6832 30.7561 56.9211 31.0256 56.164C31.0561 56.0782 31.1489 56.0145 31.2122 55.9404L31.2178 57.6467L30.6469 59.1111L29.9855 58.879Z" fill="#DBDAC7"/>
<path fill-rule="evenodd" clip-rule="evenodd" d="M30.6469 59.1115L31.2178 57.6472L31.3355 59.3797L30.6469 59.1115Z" fill="#EBE9DC"/>
<path fill-rule="evenodd" clip-rule="evenodd" d="M31.6237 52.7754C31.5319 52.3784 31.6842 52.0639 31.9598 51.7925L32.1178 51.9003L31.6237 52.7754Z" fill="#CECDB7"/>
<path fill-rule="evenodd" clip-rule="evenodd" d="M30.1481 45.4039L30.1172 45.3987L30.0862 45.4034L30.1589 45.1414L30.1481 45.4039Z" fill="#4FAA41"/>
</svg>
