<svg width="60" height="60" viewBox="0 0 60 60" fill="none" xmlns="http://www.w3.org/2000/svg">
<g clip-path="url(#clip0_1299_535)">
<path d="M29.7431 0.120605C14.5496 0.120605 15.4982 6.70944 15.4982 6.70944L15.5151 13.5357H30.014V15.5851H9.75633C9.75633 15.5851 0.0339661 14.4825 0.0339661 29.8127C0.0339661 45.1433 8.51989 44.5996 8.51989 44.5996H13.5843V37.4856C13.5843 37.4856 13.3112 28.9997 21.9347 28.9997H36.3151C36.3151 28.9997 44.3944 29.1302 44.3944 21.1913V8.0647C44.3944 8.0647 45.6215 0.120605 29.7431 0.120605ZM21.7484 4.71111C22.091 4.7108 22.4303 4.77806 22.7469 4.90903C23.0635 5.04 23.3512 5.23212 23.5935 5.47439C23.8357 5.71666 24.0279 6.00432 24.1588 6.32092C24.2898 6.63752 24.3571 6.97684 24.3568 7.31946C24.3571 7.66208 24.2898 8.0014 24.1588 8.318C24.0279 8.63459 23.8357 8.92226 23.5935 9.16453C23.3512 9.4068 23.0635 9.59891 22.7469 9.72989C22.4303 9.86086 22.091 9.92811 21.7484 9.92781C21.4058 9.92811 21.0665 9.86086 20.7499 9.72989C20.4333 9.59891 20.1456 9.4068 19.9033 9.16453C19.6611 8.92226 19.469 8.63459 19.338 8.318C19.207 8.0014 19.1397 7.66208 19.1401 7.31946C19.1397 6.97684 19.207 6.63752 19.338 6.32092C19.469 6.00432 19.6611 5.71666 19.9033 5.47439C20.1456 5.23212 20.4333 5.04 20.7499 4.90903C21.0665 4.77806 21.4058 4.7108 21.7484 4.71111Z" fill="url(#paint0_linear_1299_535)"/>
<path d="M30.1746 59.6589C45.3682 59.6589 44.4195 53.0701 44.4195 53.0701L44.4026 46.2441H29.9034V44.1946H50.1611C50.1611 44.1946 59.8835 45.2973 59.8835 29.9666C59.8835 14.6362 51.3976 15.1799 51.3976 15.1799H46.3332V22.2937C46.3332 22.2937 46.6062 30.7796 37.9828 30.7796H23.6024C23.6024 30.7796 15.5231 30.649 15.5231 38.5882V51.715C15.5231 51.715 14.2962 59.6589 30.1744 59.6589H30.1746ZM38.1693 55.0689C37.8267 55.0692 37.4874 55.0019 37.1708 54.8709C36.8542 54.74 36.5665 54.5478 36.3242 54.3056C36.082 54.0633 35.8899 53.7756 35.7589 53.459C35.6279 53.1424 35.5606 52.8031 35.561 52.4605C35.5606 52.1179 35.6279 51.7785 35.7588 51.4619C35.8898 51.1453 36.0819 50.8576 36.3242 50.6153C36.5664 50.373 36.8541 50.1809 37.1707 50.0499C37.4873 49.9189 37.8267 49.8516 38.1693 49.8519C38.5119 49.8516 38.8512 49.9189 39.1678 50.0498C39.4844 50.1808 39.7721 50.3729 40.0144 50.6152C40.2566 50.8575 40.4488 51.1451 40.5797 51.4617C40.7107 51.7783 40.778 52.1176 40.7777 52.4603C40.778 52.8029 40.7107 53.1422 40.5797 53.4588C40.4488 53.7754 40.2566 54.0631 40.0144 54.3053C39.7721 54.5476 39.4844 54.7397 39.1678 54.8707C38.8512 55.0017 38.5119 55.0692 38.1693 55.0689Z" fill="url(#paint1_linear_1299_535)"/>
</g>
<defs>
<linearGradient id="paint0_linear_1299_535" x1="575.186" y1="535.632" x2="3541.15" y2="3472" gradientUnits="userSpaceOnUse">
<stop stop-color="#387EB8"/>
<stop offset="1" stop-color="#366994"/>
</linearGradient>
<linearGradient id="paint1_linear_1299_535" x1="864.448" y1="930.56" x2="4049.55" y2="3941.54" gradientUnits="userSpaceOnUse">
<stop stop-color="#FFE052"/>
<stop offset="1" stop-color="#FFC331"/>
</linearGradient>
<clipPath id="clip0_1299_535">
<rect width="60" height="59.76" fill="white" transform="translate(0 0.10376)"/>
</clipPath>
</defs>
</svg>
