<svg width="60" height="61" viewBox="0 0 60 61" fill="none" xmlns="http://www.w3.org/2000/svg">
<path d="M30 36.1357C32.9513 36.1357 35.3438 33.7433 35.3438 30.792C35.3438 27.8407 32.9513 25.4482 30 25.4482C27.0487 25.4482 24.6562 27.8407 24.6562 30.792C24.6562 33.7433 27.0487 36.1357 30 36.1357Z" fill="#61DAFB"/>
<path d="M50.2969 21.9795C49.2656 21.6045 48.1875 21.2295 47.0625 20.9014C47.3438 19.7764 47.5781 18.6514 47.7656 17.5732C48.75 11.3857 47.6719 7.02637 44.6719 5.33887C43.7812 4.82324 42.7969 4.58887 41.6719 4.58887C38.3906 4.58887 34.2188 7.02637 30 11.1045C25.7812 7.02637 21.6094 4.58887 18.3281 4.58887C17.2031 4.58887 16.2188 4.82324 15.3281 5.33887C12.3281 7.07324 11.25 11.4326 12.2344 17.5732C12.4219 18.6514 12.6562 19.7764 12.9375 20.9014C11.8125 21.2295 10.7344 21.5576 9.70313 21.9795C3.84375 24.2295 0.65625 27.3232 0.65625 30.792C0.65625 34.2607 3.89063 37.3545 9.70313 39.6045C10.7344 39.9795 11.8125 40.3545 12.9375 40.6826C12.6562 41.8076 12.4219 42.9326 12.2344 44.0107C11.25 50.1982 12.3281 54.5576 15.3281 56.2451C16.2188 56.7607 17.2031 56.9951 18.3281 56.9951C21.6562 56.9951 25.8281 54.5576 30 50.4795C34.2188 54.5576 38.3906 56.9951 41.6719 56.9951C42.7969 56.9951 43.7812 56.7607 44.6719 56.2451C47.6719 54.5107 48.75 50.1514 47.7656 44.0107C47.5781 42.9326 47.3438 41.8076 47.0625 40.6826C48.1875 40.3545 49.2656 40.0264 50.2969 39.6045C56.1562 37.3545 59.3438 34.2607 59.3438 30.792C59.3438 27.3232 56.1562 24.2295 50.2969 21.9795ZM43.3594 7.68262C45.2812 8.80762 45.9375 12.2764 45.1406 17.1982C45 18.1826 44.7656 19.2139 44.4844 20.292C42.0469 19.7295 39.4688 19.3545 36.75 19.1201C35.1562 16.8701 33.5156 14.8545 31.875 13.0264C35.3438 9.60449 38.8594 7.26074 41.7188 7.26074C42.3281 7.26074 42.8906 7.40137 43.3594 7.68262ZM38.1094 35.4795C37.2656 36.9795 36.2812 38.4795 35.25 39.9795C33.5156 40.1201 31.7812 40.167 30 40.167C28.1719 40.167 26.4375 40.1201 24.75 39.9795C23.7187 38.4795 22.7812 36.9795 21.9375 35.4795C21.0469 33.9326 20.2031 32.3389 19.4531 30.792C20.2031 29.2451 21.0469 27.6514 21.9375 26.1045C22.7812 24.6045 23.7656 23.1045 24.7969 21.6045C26.5312 21.4639 28.2656 21.417 30.0469 21.417C31.875 21.417 33.6094 21.4639 35.2969 21.6045C36.3281 23.1045 37.2656 24.6045 38.1094 26.1045C39 27.6514 39.8438 29.2451 40.5938 30.792C39.7969 32.3389 39 33.8857 38.1094 35.4795ZM42 33.9326C42.7031 35.5732 43.2656 37.167 43.7812 38.7607C42.1875 39.1357 40.5 39.417 38.7188 39.6514C39.2812 38.7607 39.8906 37.8232 40.4062 36.8389C40.9687 35.8545 41.4844 34.8701 42 33.9326ZM30 46.6357C28.875 45.417 27.7969 44.1045 26.7656 42.7451C27.8437 42.792 28.9219 42.8389 30 42.8389C31.0781 42.8389 32.1562 42.792 33.2344 42.7451C32.2031 44.1045 31.125 45.417 30 46.6357ZM21.2812 39.6045C19.5 39.3701 17.8125 39.0889 16.2187 38.7139C16.7344 37.167 17.2969 35.5264 18 33.8857C18.5156 34.8232 19.0312 35.8076 19.5937 36.7451C20.1562 37.7764 20.7188 38.667 21.2812 39.6045ZM18 27.6514C17.2969 26.0107 16.7344 24.417 16.2187 22.8232C17.8125 22.4482 19.5 22.167 21.2812 21.9326C20.7188 22.8232 20.1094 23.7607 19.5937 24.7451C19.0312 25.7295 18.5156 26.7139 18 27.6514ZM30 14.9482C31.125 16.167 32.2031 17.4795 33.2344 18.8389C32.1562 18.792 31.0781 18.7451 30 18.7451C28.9219 18.7451 27.8437 18.792 26.7656 18.8389C27.7969 17.4795 28.875 16.167 30 14.9482ZM40.4062 24.792L38.7188 21.9795C40.5 22.2139 42.1875 22.4951 43.7812 22.8701C43.2656 24.417 42.7031 26.0576 42 27.6982C41.4844 26.7139 40.9687 25.7295 40.4062 24.792ZM14.8594 17.1982C14.0625 12.2764 14.7187 8.80762 16.6406 7.68262C17.1094 7.40137 17.6719 7.26074 18.2812 7.26074C21.0938 7.26074 24.6094 9.55762 28.125 13.0264C26.4844 14.8076 24.8437 16.8701 23.25 19.1201C20.5312 19.3545 17.9531 19.7764 15.5156 20.292C15.2344 19.2139 15.0469 18.1826 14.8594 17.1982ZM3.28125 30.792C3.28125 28.5889 5.95313 26.2451 10.6406 24.5107C11.5781 24.1357 12.6094 23.8076 13.6406 23.5264C14.3906 25.8701 15.3281 28.3545 16.4531 30.8389C15.3281 33.3232 14.3438 35.7607 13.6406 38.1045C7.17188 36.2295 3.28125 33.417 3.28125 30.792ZM16.6406 53.9014C14.7187 52.7764 14.0625 49.3076 14.8594 44.3857C15 43.4014 15.2344 42.3701 15.5156 41.292C17.9531 41.8545 20.5312 42.2295 23.25 42.4639C24.8437 44.7139 26.4844 46.7295 28.125 48.5576C24.6562 51.9795 21.1406 54.3232 18.2812 54.3232C17.6719 54.3232 17.1094 54.1826 16.6406 53.9014ZM45.1406 44.3857C45.9375 49.3076 45.2812 52.7764 43.3594 53.9014C42.8906 54.1826 42.3281 54.3232 41.7188 54.3232C38.9062 54.3232 35.3906 52.0264 31.875 48.5576C33.5156 46.7764 35.1562 44.7139 36.75 42.4639C39.4688 42.2295 42.0469 41.8076 44.4844 41.292C44.7656 42.3701 44.9531 43.4014 45.1406 44.3857ZM49.3594 37.0732C48.4219 37.4482 47.3906 37.7764 46.3594 38.0576C45.6094 35.7139 44.6719 33.2295 43.5469 30.7451C44.6719 28.2607 45.6562 25.8232 46.3594 23.4795C52.8281 25.3545 56.7188 28.167 56.7188 30.792C56.7188 32.9951 54 35.3389 49.3594 37.0732Z" fill="#61DAFB"/>
</svg>
