<svg width="60" height="61" viewBox="0 0 60 61" fill="none" xmlns="http://www.w3.org/2000/svg">
<path fill-rule="evenodd" clip-rule="evenodd" d="M16.8614 53.0498C29.7361 54.8076 42.382 56.534 55.2792 58.2941C50.8852 50.9788 46.6041 43.8505 42.2888 36.6641L16.8614 53.0498ZM58.913 12.5577C57.7781 14.2621 56.6409 15.9651 55.5075 17.6704C51.615 23.5265 47.723 29.3826 43.8342 35.2415C43.6177 35.5677 43.3369 35.8265 43.642 36.3295C47.3995 42.5343 51.1275 48.7574 54.8649 54.9749C55.4545 55.957 56.0508 56.9352 56.8134 57.8774C57.5691 42.787 58.3242 27.696 59.0794 12.6055L58.913 12.5577ZM7.61813 31.9045C7.79392 32.0709 8.23267 32.1679 8.43704 32.0671C12.0413 30.2957 15.6684 28.5637 19.1939 26.6465C20.3438 26.0216 21.2278 24.9013 22.2183 23.9929C25.4981 20.9849 28.7728 17.9709 32.0461 14.9563C32.2463 14.7712 32.4834 14.5921 32.603 14.3587C33.7786 12.0609 34.9341 9.75133 36.1303 7.37523C34.7039 6.83898 33.3516 6.31445 31.9824 5.83727C31.7967 5.77258 31.5042 5.90102 31.3031 6.01305C28.1339 7.78352 24.9052 9.45977 21.8367 11.3905C20.3016 12.3566 19.0509 13.7802 17.6916 15.0201C15.5006 17.0198 13.3125 19.0241 11.1534 21.0585C10.5806 21.5985 10.0584 22.2154 9.6122 22.8651C8.13564 25.0152 6.70313 27.1963 5.20501 29.4393C6.0422 30.3051 6.80345 31.1329 7.61813 31.9045ZM20.7909 28.9649C18.998 36.5395 17.2158 44.0713 15.3741 51.8507C24.0099 46.2862 32.4464 40.8501 40.8272 35.4506C34.1578 33.292 27.51 31.1399 20.7909 28.9649ZM56.7117 12.6309C49.4152 13.8501 42.293 15.0398 35.0789 16.2449C37.5361 22.222 39.9441 28.079 42.4205 34.1024C47.2116 26.9029 51.908 19.8477 56.7117 12.6309ZM21.0919 27.4157C27.6624 29.5485 34.102 31.6391 40.7288 33.7907C38.2678 27.7954 35.8913 22.0096 33.4655 16.1015C29.3334 19.8791 25.2633 23.601 21.0919 27.4157ZM7.88954 36.3215C5.55938 41.8916 3.30845 47.2724 1.01673 52.7502C5.4211 52.6199 9.69048 52.4938 14.1066 52.3635C12.0333 47.0141 10.0008 41.7698 7.88954 36.3215ZM14.2613 48.554L14.4234 48.5184C15.9952 41.9835 17.5894 35.4937 19.1939 28.7034C15.6145 30.5638 12.2002 32.338 8.69251 34.1615C10.4827 38.8143 12.3914 43.7226 14.2613 48.554ZM54.0708 11.571C51.9806 11.0174 49.8905 10.462 47.7994 9.91211C44.7938 9.1218 41.7858 8.34133 38.782 7.54398C38.4066 7.44414 38.1352 7.37898 37.9144 7.83133C36.8527 10.0063 35.7581 12.1649 34.6795 14.332C34.6463 14.399 34.6533 14.4857 34.6275 14.654C41.1366 13.6677 47.602 12.6876 54.0666 11.7079L54.0708 11.571ZM41.9447 6.62383L58.9805 11.3366C58.0036 8.55273 57.0975 5.97133 56.1656 3.31633L41.9695 6.46398L41.9447 6.62383ZM15.7055 54.3046C13.5956 54.0613 11.4295 54.2849 9.2897 54.322C7.53189 54.3515 5.77407 54.4185 4.01626 54.4734C3.83532 54.479 3.65485 54.5155 3.47439 54.7105C18.007 56.054 32.5392 57.3974 47.0714 58.7418L47.1009 58.5477C42.4425 57.9116 37.7836 57.2755 33.1252 56.6399C27.3202 55.8473 21.525 54.9754 15.7055 54.3046ZM1.30407 47.736C3.17673 43.3907 5.04142 39.0426 6.92157 34.7005C7.10954 34.2651 7.09501 33.9693 6.72704 33.6187C5.94048 32.8701 5.2097 32.0634 4.35001 31.169C3.18798 36.9065 2.05454 42.502 0.920166 48.097L1.0472 48.1565C1.13392 48.0173 1.23985 47.8855 1.30407 47.736ZM38.2135 5.4768C41.3714 4.66211 44.5753 4.02508 47.7605 3.31445C47.9667 3.26805 48.1683 3.20008 48.3713 3.14195L48.3399 2.98633C43.8534 3.58961 39.3675 4.19336 34.6552 4.82758C35.94 5.38867 36.93 5.80773 38.2135 5.4768Z" fill="#D91404"/>
</svg>
