<svg width="60" height="46" viewBox="0 0 60 46" fill="none" xmlns="http://www.w3.org/2000/svg">
<g clip-path="url(#clip0_1297_598)">
<path d="M51.6328 26.6436C49.5352 26.6554 47.7188 27.1592 46.1953 27.9093C45.6328 26.796 45.0703 25.8232 44.9767 25.0968C44.8712 24.253 44.7423 23.7373 44.8712 22.7296C45 21.7217 45.5859 20.292 45.5859 20.1748C45.5741 20.0693 45.4569 19.5537 44.25 19.542C43.0431 19.5303 42 19.7764 41.8828 20.0928C41.7656 20.4092 41.5313 21.1357 41.3789 21.8857C41.168 22.9873 38.9648 26.8896 37.7109 28.9404C37.3008 28.1436 36.9492 27.4404 36.8788 26.8778C36.7734 26.0342 36.6444 25.5184 36.7734 24.5107C36.9023 23.5028 37.4883 22.0732 37.4883 21.9561C37.4766 21.8506 37.3594 21.335 36.1525 21.3232C34.9453 21.3115 33.9025 21.5576 33.7853 21.874C33.6681 22.1904 33.5392 22.9404 33.2814 23.667C33.0352 24.3936 30.1055 30.9092 29.3438 32.6084C28.957 33.4756 28.6173 34.167 28.3711 34.6357C28.125 35.1045 28.3594 34.6709 28.3359 34.7178C28.125 35.1162 28.0078 35.3389 28.0078 35.3389V35.3507C27.8438 35.6437 27.668 35.9248 27.5858 35.9248C27.5272 35.9248 27.41 35.1397 27.6093 34.0616C28.0429 31.7998 29.0975 28.2726 29.0859 28.1437C29.0859 28.0851 29.285 27.4639 28.4061 27.1476C27.5507 26.8312 27.2461 27.3585 27.1757 27.3585C27.1054 27.3585 27.0468 27.546 27.0468 27.546C27.0468 27.546 27.996 23.5735 25.2304 23.5735C23.496 23.5735 21.1054 25.4602 19.9218 27.1829C19.1718 27.593 17.578 28.4601 15.8905 29.386C15.246 29.7375 14.578 30.1125 13.9452 30.4524L13.8164 30.3115C10.4648 26.7373 4.26563 24.2061 4.52344 19.4014C4.61719 17.6553 5.22657 13.0498 16.4298 7.47168C25.6056 2.90137 32.9532 4.15528 34.2305 6.94434C36.0469 10.9287 30.3047 18.335 20.7657 19.4014C17.1329 19.8115 15.2227 18.4053 14.7423 17.8779C14.2384 17.3272 14.1681 17.3037 13.9806 17.4092C13.6759 17.5732 13.8634 18.0654 13.9806 18.3584C14.2618 19.0967 15.4337 20.4092 17.4259 21.0654C19.1719 21.6397 23.4376 21.9561 28.5939 19.9639C34.3712 17.7256 38.8829 11.5147 37.5587 6.32324C36.2111 1.03809 27.4454 -0.696287 19.1603 2.24512C14.2266 4.00293 8.88282 6.74512 5.03907 10.3428C0.468755 14.6084 -0.257808 18.335 0.0468797 19.8818C1.1134 25.4014 8.71875 28.999 11.7656 31.6592C11.6133 31.7411 11.4727 31.8231 11.3438 31.8936C9.82032 32.6434 4.01954 35.6787 2.56641 38.8895C0.925786 42.5223 2.82422 45.1357 4.08985 45.4873C8.00391 46.5772 12.0117 44.6201 14.1797 41.3975C16.3358 38.1748 16.0781 33.9912 15.082 32.0811L15.0468 32.0107L16.2421 31.3076C17.0156 30.8506 17.7773 30.4287 18.4452 30.0653C18.0703 31.0848 17.8007 32.2919 17.6602 34.0497C17.4961 36.1123 18.3398 38.7841 19.4531 39.8388C19.9453 40.2957 20.5313 40.3075 20.8945 40.3075C22.1836 40.3075 22.7695 39.241 23.4141 37.9638C24.2109 36.4052 24.9141 34.6005 24.9141 34.6005C24.9141 34.6005 24.0352 39.4872 26.4375 39.4872C27.3164 39.4872 28.1953 38.3505 28.5938 37.7645V37.7763C28.5938 37.7763 28.6172 37.7411 28.6641 37.6591C28.7132 37.5864 28.7601 37.5121 28.8047 37.4365V37.4131C29.1563 36.8037 29.9414 35.4092 31.1133 33.1006C32.6249 30.124 34.0781 26.3975 34.0781 26.3975C34.0781 26.3975 34.2188 27.3115 34.6524 28.8115C34.91 29.7023 35.4725 30.6748 35.9061 31.624C35.5546 32.1162 35.3436 32.3976 35.3436 32.3976L35.3554 32.4093C35.0742 32.7843 34.7577 33.1829 34.4297 33.5812C33.2344 35.0109 31.8047 36.6399 31.6172 37.1086C31.3945 37.6593 31.4414 38.0695 31.875 38.3977C32.1914 38.6321 32.7539 38.6788 33.3516 38.6321C34.4297 38.5616 35.1797 38.2922 35.5547 38.1281C36.1406 37.9171 36.8086 37.6007 37.4531 37.132C38.625 36.2649 39.3398 35.0344 39.2695 33.3938C39.2344 32.4914 38.9414 31.6008 38.5781 30.7571C38.6836 30.6047 38.7892 30.4523 38.8945 30.2883C40.7461 27.5812 42.1758 24.6047 42.1758 24.6047C42.1758 24.6047 42.3164 25.5188 42.75 27.0188C42.9725 27.7805 43.418 28.6127 43.8164 29.433C42.082 30.8509 40.9922 32.4916 40.6172 33.5697C39.9258 35.5619 40.4648 36.4642 41.4844 36.6752C41.9413 36.7689 42.5977 36.558 43.0897 36.347C43.6991 36.1478 44.4374 35.8079 45.1172 35.3041C46.2891 34.4369 47.4141 33.2298 47.3555 31.6009C47.3203 30.8509 47.1211 30.1127 46.8516 29.4095C48.3281 28.8002 50.2382 28.4486 52.6641 28.7416C57.8789 29.3509 58.9102 32.6088 58.7111 33.9681C58.5118 35.3276 57.422 36.0775 57.0586 36.3119C56.6953 36.5345 56.5781 36.6167 56.6133 36.7806C56.6602 37.0268 56.8242 37.015 57.1406 36.9682C57.5742 36.8978 59.8828 35.855 59.9766 33.3473C60.1172 30.1241 57.0586 26.6085 51.6328 26.6436ZM11.4141 40.2021C9.69141 42.0889 7.26563 42.8037 6.23438 42.1943C5.1211 41.5498 5.55457 38.7725 7.67579 36.7686C8.96485 35.5498 10.6406 34.4248 11.7422 33.7334C11.9883 33.5811 12.3633 33.3585 12.8086 33.0889C12.8789 33.0421 12.9258 33.0186 12.9258 33.0186C13.0078 32.9717 13.1016 32.9131 13.1953 32.8545C13.9805 35.7139 13.2305 38.2217 11.4141 40.2021ZM24.0117 31.6357C23.4141 33.1006 22.1484 36.8623 21.3867 36.6514C20.7304 36.4756 20.332 33.6279 21.2577 30.8154C21.7264 29.3973 22.7225 27.71 23.3085 27.0536C24.2578 25.9989 25.2889 25.6473 25.5469 26.0809C25.8516 26.6436 24.3867 30.7217 24.0117 31.6357ZM34.4063 36.6045C34.1484 36.7335 33.9141 36.8272 33.8086 36.757C33.7266 36.7101 33.9139 36.5343 33.9139 36.5343C33.9139 36.5343 35.2147 35.1398 35.7304 34.4952C36.0233 34.1204 36.3749 33.6868 36.7499 33.1945V33.3351C36.75 35.0225 35.1328 36.1475 34.4063 36.6045ZM42.4218 34.7764C42.2343 34.6357 42.2578 34.2022 42.8905 32.8428C43.1367 32.3037 43.6991 31.4014 44.6718 30.5459C44.789 30.8975 44.8594 31.2372 44.8475 31.5537C44.8359 33.6631 43.3359 34.4482 42.4218 34.7764Z" fill="#CF649A"/>
</g>
<defs>
<clipPath id="clip0_1297_598">
<rect width="60" height="45" fill="white" transform="translate(0 0.791992)"/>
</clipPath>
</defs>
</svg>
