<svg width="60" height="61" viewBox="0 0 60 61" fill="none" xmlns="http://www.w3.org/2000/svg">
<path d="M46.25 24.567C44.3751 23.9212 42.7202 22.7602 41.475 21.217C40.1026 19.4975 38.3551 18.1148 36.3663 17.1745C34.3774 16.2342 32.1997 15.7613 30 15.792C27.0409 15.5824 24.1115 16.4951 21.795 18.3482C19.4786 20.2014 17.9451 22.859 17.5 25.792C18.3767 24.3251 19.6961 23.1741 21.2685 22.5047C22.8408 21.8354 24.585 21.6821 26.25 22.067C28.1217 22.7315 29.774 23.8993 31.025 25.4419C32.4049 27.1476 34.1557 28.5161 36.1442 29.4432C38.1326 30.3703 40.3064 30.8316 42.5 30.792C45.4591 31.0015 48.3885 30.0888 50.705 28.2357C53.0214 26.3825 54.5549 23.7249 55 20.792C54.1392 22.2764 52.824 23.4447 51.2484 24.1245C49.6729 24.8042 47.9205 24.9593 46.25 24.567ZM13.75 37.017C15.6249 37.6627 17.2798 38.8237 18.525 40.367C19.8974 42.0864 21.6449 43.4691 23.6337 44.4094C25.6226 45.3497 27.8003 45.8226 30 45.792C32.9591 46.0015 35.8885 45.0888 38.205 43.2357C40.5214 41.3825 42.0549 38.7249 42.5 35.792C41.6233 37.2588 40.3039 38.4098 38.7315 39.0792C37.1592 39.7485 35.415 39.9018 33.75 39.517C31.8783 38.8524 30.226 37.6846 28.975 36.142C27.5914 34.4405 25.8399 33.075 23.8523 32.1484C21.8647 31.2217 19.6928 30.7579 17.5 30.792C14.5409 30.5824 11.6115 31.4951 9.29501 33.3482C6.97857 35.2014 5.44511 37.859 5 40.792C5.86077 39.3075 7.17602 38.1392 8.75158 37.4594C10.3271 36.7797 12.0795 36.6246 13.75 37.017Z" fill="#39BDF8"/>
</svg>
