<svg width="60" height="61" viewBox="0 0 60 61" fill="none" xmlns="http://www.w3.org/2000/svg">
<g clip-path="url(#clip0_1297_602)">
<path d="M0.9375 30.7498V60.0467H59.5312V1.45294H0.9375V30.7498ZM48.1547 28.4061C49.5581 28.7317 50.8336 29.4657 51.8203 30.5154C52.3635 31.081 52.8358 31.7106 53.2266 32.3904C53.2266 32.4654 50.6953 34.1764 49.1531 35.1326C49.0969 35.1701 48.8719 34.9264 48.6234 34.5561C48.3419 34.0703 47.9419 33.6637 47.4607 33.3744C46.9796 33.085 46.4329 32.9223 45.8719 32.9014C44.0953 32.7795 42.9516 33.7123 42.9609 35.2451C42.9462 35.6268 43.0336 36.0054 43.2141 36.342C43.6031 37.1529 44.3297 37.6357 46.6078 38.6201C50.8031 40.4248 52.5984 41.6154 53.7141 43.3076C54.9609 45.1826 55.2375 48.2108 54.3937 50.4514C53.4562 52.8889 51.1594 54.5436 47.9109 55.092C46.4273 55.2619 44.9282 55.2462 43.4484 55.0451C41.1901 54.6788 39.1068 53.6035 37.5 51.9748C36.9609 51.3795 35.9109 49.8279 35.9766 49.7154C36.1477 49.5884 36.3279 49.474 36.5156 49.3733L38.6719 48.1358L40.3547 47.1608L40.7062 47.6811C41.2996 48.5298 42.0546 49.253 42.9281 49.8092C44.8031 50.7936 47.3625 50.6576 48.6281 49.5186C49.0531 49.1012 49.3182 48.548 49.3773 47.9553C49.4364 47.3626 49.2857 46.7679 48.9516 46.2748C48.4828 45.6233 47.5453 45.0748 44.925 43.9311C41.9016 42.6279 40.5984 41.8217 39.4078 40.5373C38.6645 39.6898 38.1158 38.6898 37.8 37.6076C37.5645 36.3713 37.5297 35.1051 37.6969 33.8576C38.3203 30.9373 40.5094 28.8983 43.7062 28.2936C45.1868 28.1104 46.6864 28.1515 48.1547 28.4154V28.4061ZM34.4016 30.8623V33.2623H26.7938V54.9326H21.3984V33.2576H13.7719V30.9139C13.7514 30.107 13.7733 29.2997 13.8375 28.4951C13.8656 28.4576 18.525 28.4389 24.15 28.4483H34.3734L34.4016 30.8623Z" fill="#007ACC"/>
</g>
<defs>
<clipPath id="clip0_1297_602">
<rect width="60" height="60" fill="white" transform="translate(0 0.791992)"/>
</clipPath>
</defs>
</svg>
