<svg width="121" height="281" viewBox="0 0 121 281" fill="none" xmlns="http://www.w3.org/2000/svg">
<path id="line" d="M29.254 280.59C30.4083 281.278 31.9019 280.9 32.5901 279.746L43.804 260.935C44.4922 259.781 44.1143 258.288 42.96 257.599C41.8057 256.911 40.3121 257.289 39.6239 258.443L29.6559 275.164L12.9355 265.196C11.7811 264.508 10.2875 264.886 9.59939 266.04C8.91125 267.194 9.28915 268.688 10.4435 269.376L29.254 280.59ZM89.249 2.34101L115.331 88.9693L119.991 87.5663L93.909 0.938014L89.249 2.34101ZM104.851 110.416L14.6337 145.339L16.3905 149.877L106.608 114.954L104.851 110.416ZM0.984045 171.762L28.141 279.097L32.8589 277.903L5.70194 170.568L0.984045 171.762ZM14.6337 145.339C4.06041 149.432 -1.79693 160.771 0.984045 171.762L5.70194 170.568C3.52426 161.961 8.11094 153.082 16.3905 149.877L14.6337 145.339ZM115.331 88.9693C117.977 97.7581 113.411 107.102 104.851 110.416L106.608 114.954C117.539 110.723 123.37 98.7898 119.991 87.5663L115.331 88.9693Z" fill="black"/>
</svg>
