<svg xmlns="http://www.w3.org/2000/svg" fill="white" viewBox="0 0 24 24" id="amazon-aws"><path d="M6.494 11.999a.491.491 0 0 1-.218-.052C6.146 11.882 5 11.237 5 8.75c0-.223.01-.451.021-.678.033-.709.064-1.379-.257-1.716-.221-.231-.646-.348-1.264-.348-1.15 0-1.541.694-1.557.724a.504.504 0 0 1-.673.208.497.497 0 0 1-.216-.665c.026-.052.658-1.267 2.446-1.267.915 0 1.565.215 1.987.658.617.646.573 1.606.533 2.453-.01.211-.02.423-.02.631 0 1.852.731 2.306.738 2.311a.508.508 0 0 1 .192.674.497.497 0 0 1-.436.264z"></path><path d="M3.5 12C2.882 12 1 12 1 10c0-1.313 1.258-2 2.5-2 1.667 0 2.297.616 2.363.686a.5.5 0 0 1-.198.815.5.5 0 0 1 .423.691C6.057 10.267 5.312 12 3.5 12zm0-3C2.897 9 2 9.266 2 10c0 .469 0 1 1.5 1 1.153 0 1.66-1.181 1.665-1.192a.5.5 0 0 1 .297-.28.498.498 0 0 1-.316-.145C5.12 9.36 4.682 9 3.5 9zm11 3a.5.5 0 0 1-.474-.342L12.5 7.081l-1.526 4.577c-.136.408-.812.408-.948 0l-2-6a.499.499 0 1 1 .948-.316L10.5 9.919l1.526-4.577c.136-.408.812-.408.948 0L14.5 9.92l1.525-4.57a.499.499 0 1 1 .948.316l-2 5.992A.498.498 0 0 1 14.5 12zm6.552 0H19.5a.5.5 0 0 1 0-1h1.552a.949.949 0 0 0 .948-.948.951.951 0 0 0-.648-.908l-1.02-.34A1.944 1.944 0 0 1 19 6.956a1.95 1.95 0 0 1 1.948-1.948H22.5a.5.5 0 0 1 0 1h-1.552a.949.949 0 0 0-.3 1.848l1.02.34A1.952 1.952 0 0 1 21.052 12zM11.5 20C3.828 20 .239 15 .09 14.787a.499.499 0 0 1 .819-.574C.943 14.26 4.368 19 11.5 19c5.249 0 9.624-3.835 9.668-3.874a.497.497 0 0 1 .706.042.5.5 0 0 1-.042.706C21.643 16.042 17.125 20 11.5 20z"></path><path d="M22.5 18.044a.499.499 0 0 1-.486-.62l.8-3.237-3.196.798a.499.499 0 1 1-.242-.97l4.002-1a.5.5 0 0 1 .606.605l-1 4.044a.497.497 0 0 1-.484.38z"></path></svg>