<svg xmlns="http://www.w3.org/2000/svg" fill="white" enable-background="new 0 0 24 24" viewBox="0 0 24 24" id="ionic"><path d="M12 17.991C8.698 17.988 6.01 15.3 6.007 12c.003-3.302 2.691-5.99 5.991-5.993.001 0 .003 0 .003 0 3.298.005 5.984 2.693 5.99 5.991C17.988 15.3 15.3 17.988 12 17.991zM12 7.507C9.524 7.51 7.51 9.525 7.507 12 7.51 14.473 9.524 16.489 12 16.491c2.474-.002 4.488-2.018 4.491-4.493C16.487 9.527 14.472 7.512 12 7.507zM20 7c-1.654 0-3-1.346-3-3s1.346-3 3-3 3 1.346 3 3S21.654 7 20 7zM20 2.5c-.827 0-1.5.673-1.5 1.5s.673 1.5 1.5 1.5 1.5-.673 1.5-1.5S20.827 2.5 20 2.5z"></path><path d="M12.001,24C5.393,23.99,0.011,18.607,0,12.001C0.011,5.393,5.393,0.01,11.999,0c1.664,0.01,3.26,0.34,4.748,0.981c0.38,0.164,0.556,0.605,0.392,0.985c-0.164,0.381-0.608,0.554-0.985,0.393c-1.303-0.561-2.701-0.85-4.158-0.859C6.22,1.509,1.509,6.22,1.5,12.001C1.509,17.78,6.22,22.491,12.001,22.5c5.779-0.009,10.49-4.72,10.499-10.501c-0.009-1.451-0.298-2.85-0.858-4.153c-0.164-0.38,0.012-0.821,0.392-0.985c0.378-0.163,0.821,0.011,0.985,0.393c0.642,1.488,0.971,3.083,0.981,4.742C23.989,18.607,18.607,23.99,12.001,24z"></path></svg>