<!-- <svg id="JavaScript" xmlns="http://www.w3.org/2000/svg" width="100%" height="100%" fill="currentColor" >
<path width="100%" height="100%"  fill-rule="evenodd" d="M15.328 18.432c-1.745 0-2.873-.832-3.423-1.92l1.53-.886c.403.658.926 1.141 1.853 1.141.778 0 1.275-.389 1.275-.926 0-.808-1.078-1.124-1.839-1.45-1.356-.577-2.256-1.302-2.256-2.833 0-1.409 1.074-2.483 2.753-2.483 1.194 0 2.054.416 2.671 1.503l-1.463.94c-.322-.577-.671-.805-1.208-.805-.551 0-.9.349-.9.805 0 .564.349.792 1.155 1.141 1.689.724 2.967 1.293 2.967 3.155 0 1.692-1.329 2.618-3.115 2.618zM11 15.599c0 1.947-1.199 2.976-2.864 2.976-1.504 0-2.405-.575-2.848-1.575h-.026l1.529-1.069c.295.523.561.894 1.205.894.618 0 1.004-.313 1.004-1.252V9h2v6.599zM0 20h20V0H0v20z"></path>
</svg> -->

<!-- <svg xmlns="http://www.w3.org/2000/svg" width="2500" height="2500" preserveAspectRatio="xMinYMin meet" fill="white" viewBox="0 0 256 256" id="JavaScript"><path fill="yellow" d="M0 0h256v256H0V0z"></path><path d="M67.312 213.932l19.59-11.856c3.78 6.701 7.218 12.371 15.465 12.371 7.905 0 12.89-3.092 12.89-15.12v-81.798h24.057v82.138c0 24.917-14.606 36.259-35.916 36.259-19.245 0-30.416-9.967-36.087-21.996M152.381 211.354l19.588-11.341c5.157 8.421 11.859 14.607 23.715 14.607 9.969 0 16.325-4.984 16.325-11.858 0-8.248-6.53-11.17-17.528-15.98l-6.013-2.58c-17.357-7.387-28.87-16.667-28.87-36.257 0-18.044 13.747-31.792 35.228-31.792 15.294 0 26.292 5.328 34.196 19.247L210.29 147.43c-4.125-7.389-8.591-10.31-15.465-10.31-7.046 0-11.514 4.468-11.514 10.31 0 7.217 4.468 10.14 14.778 14.608l6.014 2.577c20.45 8.765 31.963 17.7 31.963 37.804 0 21.654-17.012 33.51-39.867 33.51-22.339 0-36.774-10.654-43.819-24.574"></path></svg> -->

<svg xmlns="http://www.w3.org/2000/svg" viewBox="0 0 128 128" id="JavaScript" fill="currentColor"><path fill="white" d="M1.408 1.408h125.184v125.185h-125.184z"></path><path fill="#F1DC4E" d="M116.347 96.736c-.917-5.711-4.641-10.508-15.672-14.981-3.832-1.761-8.104-3.022-9.377-5.926-.452-1.69-.512-2.642-.226-3.665.821-3.32 4.784-4.355 7.925-3.403 2.023.678 3.938 2.237 5.093 4.724 5.402-3.498 5.391-3.475 9.163-5.879-1.381-2.141-2.118-3.129-3.022-4.045-3.249-3.629-7.676-5.498-14.756-5.355l-3.688.477c-3.534.893-6.902 2.748-8.877 5.235-5.926 6.724-4.236 18.492 2.975 23.335 7.104 5.332 17.54 6.545 18.873 11.531 1.297 6.104-4.486 8.08-10.234 7.378-4.236-.881-6.592-3.034-9.139-6.949-4.688 2.713-4.688 2.713-9.508 5.485 1.143 2.499 2.344 3.63 4.26 5.795 9.068 9.198 31.76 8.746 35.83-5.176.165-.478 1.261-3.666.38-8.581zm-46.885-37.793h-11.709l-.048 30.272c0 6.438.333 12.34-.714 14.149-1.713 3.558-6.152 3.117-8.175 2.427-2.059-1.012-3.106-2.451-4.319-4.485-.333-.584-.583-1.036-.667-1.071l-9.52 5.83c1.583 3.249 3.915 6.069 6.902 7.901 4.462 2.678 10.459 3.499 16.731 2.059 4.082-1.189 7.604-3.652 9.448-7.401 2.666-4.915 2.094-10.864 2.07-17.444.06-10.735.001-21.468.001-32.237z"></path></svg>